<svg width="125" height="125" viewBox="0 0 125 125" fill="none" xmlns="http://www.w3.org/2000/svg">
  <style>
    #sign {
      transform-origin: 90px 78px;
      animation: inimate__one 2s infinite 0.5s;
    }

    @keyframes inimate__one {
      0% {
        transform: rotate(-5deg);
      }

      50% {
        transform: rotate(5deg);
      }

      100% {
        transform: rotate(-5deg);
      }
    }
  </style>
<g id="sign">
   <path fill-rule="evenodd" clip-rule="evenodd"
    d="M76 78.6a13.3 13.3 0 0 0 26.6 1.2 1.4 1.4 0 0 0-2.7-.2 10.6 10.6 0 1 1-.4-4 1.4 1.4 0 1 0 2.6-.9A13.3 13.3 0 0 0 76 78.6Z"
    fill="#000" />
  <path fill-rule="evenodd" clip-rule="evenodd"
    d="m87.9 108.1-1.5-5.3-1-.1H85l-.6-.2c-.7-.1-1.5-.3-2.2-.6l-1-.3-3.8 4.1c-1.4-.6-2.9-1.4-4.2-2.2l1.3-5.4-.8-.7-2.3-2-.7-.9-5.3 1.7c-1-1.3-1.8-2.6-2.5-4l3.8-4-.3-1-1-3-.2-1-5.4-1.2c-.2-1.6-.2-3.2-.2-4.8l5.4-1.5.1-1.1.2-.8.5-2.2.3-1-4-3.8c.6-1.5 1.3-2.9 2.2-4.2l5.3 1.3.7-.8 2.2-2.3.7-.7-1.7-5.3c1.3-1 2.7-1.8 4.1-2.5l4 3.8 1-.4 3-.9 1-.2 1.2-5.4c1.6-.2 3.2-.3 4.8-.2l1.5 5.3 1 .2h.3l.6.2 2.2.5 1 .3 3.7-4c1.5.6 3 1.3 4.3 2.2l-1.4 5.3.9.7L107 62l.7.7L113 61a30 30 0 0 1 2.6 4.1l-3.9 4 .4 1 1 3 .2 1 5.4 1.2c.2 1.6.2 3.2.1 4.8l-5.3 1.5-.1 1v.2l-.2.7-.5 2.2-.3 1 4 3.7c-.6 1.5-1.4 3-2.2 4.3l-5.4-1.4-.6.9-2.2 2.2-.8.8 1.7 5.2a30 30 0 0 1-4 2.6l-4-3.9-1 .4-3 1-1 .2-1.2 5.4c-1.6.2-3.2.2-4.8.1Zm-1.5 3.3c2.7.3 5.4.2 8-.2l1.1-.2 1.2-5.7c.5 0 1-.2 1.4-.4l4.1 4 1-.5c2.4-1 4.7-2.5 6.8-4.1l.9-.8L109 98l1-1 5.5 1.4.7-1c1.5-2 2.8-4.4 3.7-7l.4-1-4.2-3.9.3-1.3 5.5-1.6.1-1.2c.3-2.7.2-5.3-.2-7.9l-.2-1.1-5.6-1.2-.5-1.4 4-4.1-.5-1a33.3 33.3 0 0 0-4.1-6.8l-.8-.9-5.4 1.8-1-1 1.3-5.6-1-.6a32.8 32.8 0 0 0-7-3.8l-1-.4-3.9 4.3-1.3-.3-1.6-5.5-1.2-.2c-2.6-.2-5.3 0-7.9.3l-1.1.2-1.2 5.6-1.4.4-4.1-4-1 .5a33.2 33.2 0 0 0-6.8 4.2l-.9.7 1.8 5.5-1 1-5.6-1.3-.6.9a32.6 32.6 0 0 0-3.7 7l-.5 1 4.3 4-.3 1.3-5.5 1.6-.1 1.1c-.3 2.7-.2 5.4.2 8l.2 1 5.6 1.3.4 1.3-4 4.2.5 1a33 33 0 0 0 4.2 6.8l.7.9 5.5-1.8 1 1-1.3 5.5 1 .7a33 33 0 0 0 6.9 3.7l1 .4 4-4.2 1.3.3 1.6 5.5 1.1.1Z"
    fill="#000" />
  </g>
  <path fill-rule="evenodd" clip-rule="evenodd"
    d="M42.4 28.8a2 2 0 0 0 2-2V15a2 2 0 0 0-2-2H29.9a2 2 0 0 0 0 4h10.5v9.8c0 1.1.9 2 2 2Z" fill="#000" />
  <path fill-rule="evenodd" clip-rule="evenodd"
    d="M2 93.5c0 1.1.9 2 2 2h24.3a2 2 0 1 0 0-4H6V17h21.9v9.8c0 1.1.9 2 2 2h71v21.7a2 2 0 1 0 4 0V26.8a2 2 0 0 0-2-2H32V15a2 2 0 0 0-2-2H4a2 2 0 0 0-2 2v78.5Z"
    fill="#000" />
  <path fill-rule="evenodd" clip-rule="evenodd" d="M33.5 93.5c0 1.1 1 2 2 2h26.3a2 2 0 0 0 0-4H35.5a2 2 0 0 0-2 2Z"
    fill="#000" />
  <path fill-rule="evenodd" clip-rule="evenodd" d="M92.3 50.5a2 2 0 0 0 2-2V26.8a2 2 0 0 0-4 0v21.7c0 1 .9 2 2 2Z"
    fill="#000" />
</svg>