<svg width="292" height="292" viewBox="0 0 292 292" fill="none" xmlns="http://www.w3.org/2000/svg">
  <style>
    #opacity_block {
      transform-origin: 146px 146px;
      animation: inimate__one 10s infinite linear;
    }

    @keyframes inimate__one {
      0% {
        transform: rotate(0deg);
      }

      100% {
        transform: rotate(360deg);
      }
    }
  </style>
  <path
    d="M146.6 292.69c80.57 0 145.87-65.3 145.87-145.87C292.47 66.27 227.17.96 146.61.96 66.05.96.75 66.26.75 146.82c0 80.56 65.3 145.87 145.86 145.87Z"
    fill="#3398CC" />
  <path d="M146.24 192.04a44.65 44.65 0 1 0 0-89.3 44.65 44.65 0 0 0 0 89.3Z" fill="#01009A" />
  <path
    d="M146.24 177.67a30.28 30.28 0 1 0 0-60.57 30.28 30.28 0 0 0 0 60.57ZM289.7 161.68c-.68-.07-1.21-.69-1.16-1.38l.46-6.1.16-6.11c.02-.7.6-1.26 1.3-1.27.71 0 1.27.58 1.25 1.29l-.16 6.22-.47 6.2a1.24 1.24 0 0 1-1.37 1.15ZM286.3 181.26a1.3 1.3 0 0 1-.97-1.54c.98-3.95 1.67-7.97 2.31-12 .1-.69.73-1.17 1.43-1.07.7.1 1.19.74 1.1 1.44-.66 4.1-1.35 8.19-2.37 12.22-.14.7-.82 1.12-1.5.95Z"
    fill="#fff" />
  <path
    d="M282.01 195.5a1.3 1.3 0 0 1-.8-1.63c.63-1.93 1.37-3.85 1.9-5.81.56-1.96 1.14-3.92 1.66-5.88.16-.67.84-1.1 1.52-.92.68.17 1.11.86.95 1.55-.54 2-1.12 4-1.68 6-.55 2-1.3 3.93-1.93 5.9a1.25 1.25 0 0 1-1.62.78ZM273.99 213.68a1.3 1.3 0 0 1-.56-1.72c.93-1.81 1.88-3.61 2.68-5.49l1.27-2.78.63-1.4.56-1.42c.25-.64.99-.96 1.64-.7.65.26.98 1 .72 1.67l-.57 1.44-.64 1.42-1.28 2.84c-.82 1.9-1.79 3.74-2.74 5.59-.32.64-1.09.88-1.71.55ZM266.42 226.47a1.28 1.28 0 0 1-.38-1.76 151.5 151.5 0 0 0 6.26-10.5 1.25 1.25 0 0 1 1.7-.52c.62.33.87 1.1.55 1.73-2 3.63-4.08 7.23-6.37 10.69-.4.59-1.18.75-1.76.36ZM254.27 242.2a1.28 1.28 0 0 1-.13-1.78c1.34-1.55 2.7-3.07 3.92-4.7l1.9-2.4.94-1.2.88-1.24c.4-.56 1.19-.7 1.76-.28.57.4.71 1.2.3 1.79l-.9 1.27-.96 1.22-1.93 2.45c-1.25 1.65-2.62 3.2-3.98 4.78-.47.5-1.28.56-1.8.1Z"
    fill="#fff" />
  <path
    d="M243.87 252.82a1.3 1.3 0 0 1 .04-1.82c1.46-1.42 3-2.77 4.4-4.25 1.4-1.49 2.83-2.94 4.2-4.44a1.25 1.25 0 0 1 1.77-.1c.53.47.59 1.28.12 1.81-1.39 1.53-2.85 3.02-4.27 4.52-1.42 1.51-2.98 2.89-4.46 4.34-.53.49-1.33.46-1.8-.06ZM228.33 265.21c-.4-.58-.27-1.37.3-1.78 1.65-1.2 3.34-2.33 4.92-3.63l2.4-1.9c.8-.61 1.6-1.25 2.37-1.93.52-.45 1.32-.39 1.78.15.46.53.4 1.35-.14 1.82-.77.69-1.59 1.33-2.4 1.97l-2.45 1.92c-1.6 1.32-3.33 2.48-5.01 3.69-.58.41-1.38.27-1.77-.31ZM215.68 273.03a1.3 1.3 0 0 1 .48-1.74c1.76-1.03 3.56-1.98 5.28-3.09l5.13-3.3c.56-.4 1.36-.26 1.76.32.4.58.26 1.38-.32 1.8-1.74 1.13-3.49 2.24-5.23 3.36-1.75 1.12-3.58 2.1-5.37 3.14-.61.36-1.38.13-1.73-.49ZM197.63 281.35c-.25-.66.07-1.4.72-1.65 1.9-.76 3.81-1.46 5.65-2.34l2.79-1.26c.93-.41 1.86-.83 2.75-1.31a1.25 1.25 0 0 1 1.7.57c.32.63.07 1.4-.56 1.72-.92.5-1.87.91-2.81 1.34l-2.84 1.29c-1.87.89-3.82 1.6-5.75 2.37a1.27 1.27 0 0 1-1.65-.73ZM183.48 285.9a1.3 1.3 0 0 1 .88-1.58l2.93-.84c.99-.27 1.97-.55 2.93-.89 1.92-.66 3.87-1.3 5.78-1.97.64-.25 1.37.07 1.62.73a1.3 1.3 0 0 1-.74 1.66c-1.95.7-3.93 1.35-5.89 2.02-.98.35-1.97.63-2.98.9l-3 .86a1.25 1.25 0 0 1-1.53-.9ZM163.95 289.61c-.08-.7.41-1.34 1.1-1.42l3.03-.38c1.01-.15 2-.35 3.01-.52 2-.38 4.03-.66 6-1.16.68-.16 1.36.27 1.52.96.16.7-.27 1.37-.96 1.53-2.02.51-4.07.8-6.12 1.19-1.02.18-2.04.38-3.06.53l-3.09.39a1.28 1.28 0 0 1-1.43-1.12Z"
    fill="#fff" />
  <path
    d="M149.12 290.63c0-.7.54-1.3 1.24-1.32l3.05-.08c1.02-.02 2.03-.14 3.05-.2l3.04-.23c1.03-.07 2.04-.15 3.05-.3.69-.09 1.31.41 1.4 1.11.1.7-.41 1.35-1.12 1.44-1.02.15-2.07.24-3.1.3l-3.1.25c-1.03.07-2.07.18-3.1.2l-3.11.09c-.7 0-1.29-.56-1.3-1.26ZM129.28 289.61c.08-.7.7-1.19 1.4-1.1 1.01.14 2.02.22 3.05.3l3.04.22c1.01.06 2.03.18 3.05.2l3.05.08c.7.02 1.25.6 1.23 1.32 0 .7-.59 1.26-1.3 1.24l-3.1-.08c-1.04-.02-2.08-.14-3.1-.21l-3.11-.24a40.56 40.56 0 0 1-3.1-.31c-.7-.07-1.2-.71-1.11-1.42ZM114.63 287.08c.16-.7.83-1.12 1.51-.96 1.98.5 4 .78 6 1.16 1 .17 2 .37 3.02.52l3.04.38a1.28 1.28 0 0 1-.33 2.53l-3.09-.39c-1.02-.15-2.04-.36-3.06-.52-2.04-.4-4.1-.68-6.12-1.19a1.28 1.28 0 0 1-.97-1.53ZM95.6 281.35c.25-.66.98-1 1.62-.73 1.91.69 3.86 1.31 5.78 1.97.96.34 1.94.62 2.93.9l2.94.82c.67.2 1.06.9.88 1.59a1.25 1.25 0 0 1-1.56.88l-3-.85c-1-.28-1.99-.56-2.97-.91-1.96-.67-3.94-1.32-5.9-2.02-.64-.25-.97-.99-.72-1.65ZM82 275.35a1.26 1.26 0 0 1 1.69-.57c.9.48 1.83.9 2.75 1.31l2.79 1.26c1.84.88 3.75 1.58 5.65 2.34.64.25.96.99.72 1.65-.25.66-.98.98-1.65.72-1.92-.77-3.87-1.48-5.75-2.37l-2.83-1.29c-.95-.42-1.9-.85-2.8-1.34a1.27 1.27 0 0 1-.58-1.71ZM64.9 265.21c.4-.58 1.18-.72 1.76-.32l5.13 3.31c1.72 1.1 3.52 2.06 5.27 3.1.6.34.82 1.12.48 1.73-.34.63-1.1.84-1.72.49-1.78-1.06-3.62-2.03-5.37-3.15-1.74-1.12-3.5-2.23-5.23-3.37a1.3 1.3 0 0 1-.32-1.79Z"
    fill="#fff" />
  <path
    d="M53.13 256.13c.46-.53 1.25-.6 1.78-.15a40.2 40.2 0 0 0 2.37 1.94l2.4 1.89c1.58 1.3 3.27 2.43 4.92 3.63.56.4.7 1.2.3 1.78-.4.58-1.19.72-1.77.31-1.68-1.21-3.4-2.37-5.01-3.69l-2.44-1.92a41.27 41.27 0 0 1-2.4-1.97 1.3 1.3 0 0 1-.15-1.82ZM38.96 242.2a1.26 1.26 0 0 1 1.78.1c1.37 1.52 2.8 2.96 4.2 4.45 1.39 1.49 2.92 2.83 4.38 4.25.5.49.52 1.3.05 1.82-.48.52-1.28.55-1.79.06-1.48-1.45-3.04-2.83-4.46-4.34-1.42-1.51-2.88-2.99-4.27-4.52a1.28 1.28 0 0 1 .1-1.81Z"
    fill="#fff" />
  <path
    d="M29.69 230.59a1.26 1.26 0 0 1 1.76.28l.88 1.24.94 1.2 1.9 2.4c1.23 1.64 2.58 3.16 3.92 4.7.45.52.39 1.33-.13 1.79-.54.47-1.34.4-1.8-.12-1.36-1.57-2.73-3.12-3.99-4.78l-1.92-2.45-.96-1.22-.9-1.27a1.26 1.26 0 0 1 .3-1.77ZM19.24 213.68c.62-.34 1.4-.1 1.7.52 1.98 3.56 4.01 7.1 6.26 10.5.37.58.2 1.37-.38 1.76-.59.39-1.37.23-1.75-.37-2.3-3.46-4.37-7.05-6.37-10.7-.33-.6-.1-1.38.54-1.71Z"
    fill="#fff" />
  <path
    d="M13.02 200.18c.65-.26 1.4.05 1.64.7l.56 1.41.63 1.4 1.27 2.78c.8 1.88 1.75 3.68 2.68 5.5.32.61.07 1.38-.56 1.7-.63.34-1.4.1-1.71-.53-.96-1.85-1.92-3.7-2.74-5.6l-1.28-2.83-.64-1.42-.57-1.44c-.26-.67.06-1.4.72-1.67ZM6.93 181.26c.68-.17 1.36.24 1.52.92.53 1.96 1.1 3.93 1.65 5.88.54 1.96 1.28 3.87 1.9 5.81a1.3 1.3 0 0 1-.8 1.62 1.25 1.25 0 0 1-1.6-.78c-.65-1.97-1.39-3.9-1.94-5.9-.56-2-1.15-4-1.68-6a1.3 1.3 0 0 1 .95-1.55Z"
    fill="#fff" />
  <path
    d="M4.15 166.66c.7-.1 1.33.38 1.42 1.07.66 4.02 1.34 8.05 2.32 12 .16.68-.27 1.37-.96 1.54-.7.17-1.38-.25-1.54-.95-1-4.02-1.7-8.12-2.36-12.2a1.31 1.31 0 0 1 1.12-1.46ZM2.75 146.82c.7 0 1.3.56 1.31 1.27l.16 6.1.46 6.1c.05.7-.48 1.32-1.17 1.4a1.24 1.24 0 0 1-1.37-1.15l-.47-6.2-.16-6.22c-.02-.72.54-1.3 1.24-1.3Z"
    fill="#fff" />
  <path
    d="M3.51 131.98c.7.07 1.22.69 1.17 1.38l-.46 6.1-.16 6.11c-.02.7-.6 1.25-1.31 1.26-.7 0-1.26-.57-1.24-1.28l.16-6.22.47-6.2c.05-.71.66-1.22 1.37-1.15ZM6.93 112.4c.68.17 1.1.85.96 1.53-.98 3.96-1.67 7.98-2.32 12-.09.7-.72 1.18-1.42 1.08a1.3 1.3 0 0 1-1.1-1.44c.66-4.1 1.35-8.19 2.36-12.22.15-.7.84-1.12 1.52-.95Z"
    fill="#fff" />
  <path
    d="M11.22 98.17c.66.24 1.02.96.8 1.62-.63 1.93-1.37 3.85-1.9 5.81-.56 1.96-1.13 3.92-1.66 5.88-.16.67-.84 1.1-1.52.92a1.3 1.3 0 0 1-.95-1.55c.54-2 1.12-4 1.68-6 .55-2 1.3-3.93 1.93-5.9.23-.68.95-1.02 1.62-.78ZM19.24 79.97c.62.33.87 1.1.56 1.72-.93 1.8-1.88 3.61-2.68 5.49l-1.27 2.78-.63 1.4-.56 1.42c-.25.64-1 .96-1.64.7-.65-.26-.98-1-.72-1.67l.57-1.44.64-1.42 1.28-2.84c.82-1.9 1.78-3.74 2.74-5.59a1.27 1.27 0 0 1 1.71-.55Z"
    fill="#fff" />
  <path
    d="M26.81 67.19c.58.39.76 1.18.38 1.76-2.25 3.4-4.28 6.94-6.26 10.5-.32.62-1.08.85-1.7.52a1.3 1.3 0 0 1-.55-1.73c2-3.63 4.08-7.23 6.37-10.69.4-.6 1.18-.75 1.76-.36ZM38.96 51.45c.53.47.58 1.27.13 1.8-1.34 1.54-2.7 3.06-3.92 4.68l-1.9 2.4-.94 1.2-.88 1.25c-.4.56-1.2.7-1.76.28a1.3 1.3 0 0 1-.3-1.8l.9-1.26.96-1.23 1.92-2.44c1.26-1.65 2.63-3.2 4-4.78a1.28 1.28 0 0 1 1.79-.1Z"
    fill="#fff" />
  <path
    d="M49.36 40.84a1.3 1.3 0 0 1-.05 1.82c-1.45 1.42-3 2.77-4.38 4.25-1.4 1.49-2.84 2.94-4.2 4.44-.45.52-1.25.57-1.78.1a1.3 1.3 0 0 1-.13-1.81c1.4-1.54 2.86-3.02 4.28-4.52 1.42-1.51 2.98-2.89 4.46-4.34.52-.49 1.32-.46 1.8.06ZM64.9 28.45c.4.58.27 1.38-.3 1.78-1.65 1.2-3.34 2.33-4.92 3.63l-2.4 1.9c-.8.61-1.6 1.24-2.37 1.93-.52.45-1.32.39-1.78-.15-.46-.54-.4-1.35.14-1.82.77-.69 1.58-1.33 2.4-1.97l2.45-1.92c1.6-1.32 3.33-2.48 5-3.7a1.26 1.26 0 0 1 1.78.32ZM77.54 20.61c.35.63.13 1.4-.48 1.75-1.75 1.03-3.55 1.98-5.27 3.08l-5.13 3.32c-.57.4-1.36.26-1.76-.32a1.3 1.3 0 0 1 .32-1.8c1.74-1.14 3.49-2.24 5.23-3.36 1.75-1.12 3.59-2.1 5.37-3.15a1.25 1.25 0 0 1 1.72.48ZM95.6 12.31c.25.66-.07 1.4-.72 1.65-1.9.76-3.81 1.46-5.65 2.34l-2.79 1.26c-.93.41-1.86.83-2.75 1.31-.63.32-1.38.06-1.7-.57-.32-.63-.07-1.4.56-1.72.92-.5 1.87-.91 2.8-1.34l2.84-1.29c1.88-.89 3.83-1.6 5.75-2.37.68-.25 1.4.07 1.66.73ZM109.75 7.75a1.3 1.3 0 0 1-.88 1.58l-2.94.84c-.99.27-1.97.55-2.93.89-1.92.66-3.87 1.29-5.78 1.97a1.25 1.25 0 0 1-1.62-.73 1.3 1.3 0 0 1 .74-1.66c1.95-.7 3.93-1.35 5.89-2.02a44.3 44.3 0 0 1 2.97-.9l3-.86c.67-.18 1.37.21 1.55.9ZM129.28 4.04c.08.7-.41 1.35-1.1 1.43l-3.03.38c-1 .15-2 .35-3 .52-2 .38-4.03.66-6 1.16a1.26 1.26 0 0 1-1.52-.96c-.16-.7.27-1.37.96-1.53 2.02-.51 4.07-.8 6.11-1.19 1.03-.18 2.05-.38 3.07-.53l3.09-.39c.7-.08 1.33.41 1.42 1.11Z"
    fill="#fff" />
  <path
    d="M144.1 3.03c.02.7-.54 1.3-1.23 1.32l-3.05.08c-1.03.02-2.04.14-3.05.2l-3.04.23c-1.03.07-2.04.15-3.05.3-.7.09-1.31-.41-1.4-1.12a1.3 1.3 0 0 1 1.12-1.43c1.02-.15 2.06-.24 3.1-.3l3.1-.25c1.03-.07 2.06-.18 3.1-.2l3.11-.09c.7 0 1.28.55 1.3 1.26ZM163.95 4.04c-.08.7-.71 1.2-1.4 1.12a38.67 38.67 0 0 0-3.05-.3l-3.04-.23c-1.02-.06-2.04-.18-3.05-.2l-3.05-.08c-.7-.02-1.25-.6-1.24-1.32.01-.7.6-1.26 1.3-1.24l3.11.08c1.04.02 2.08.14 3.1.21l3.11.24c1.03.07 2.07.16 3.1.31.7.07 1.2.71 1.11 1.41Z"
    fill="#fff" />
  <path
    d="M178.6 6.58c-.16.7-.83 1.12-1.52.96-1.97-.51-4-.78-6-1.16-1-.17-2-.37-3.01-.52l-3.04-.38a1.27 1.27 0 0 1-1.09-1.43c.08-.7.72-1.19 1.42-1.1l3.09.38c1.02.16 2.04.36 3.06.53 2.04.4 4.1.68 6.12 1.19.7.16 1.13.85.97 1.53ZM197.63 12.31c-.25.66-.98 1-1.62.73-1.91-.69-3.86-1.31-5.78-1.97-.96-.35-1.94-.62-2.93-.9l-2.94-.83a1.3 1.3 0 0 1-.88-1.58c.18-.68.88-1.08 1.56-.88l3 .85c1 .28 1.99.56 2.97.91 1.96.67 3.94 1.32 5.89 2.02.65.25.98.99.73 1.65Z"
    fill="#fff" />
  <path
    d="M211.23 18.3c-.32.63-1.08.88-1.7.57-.9-.48-1.83-.9-2.75-1.31l-2.79-1.26c-1.84-.88-3.75-1.59-5.65-2.34a1.3 1.3 0 0 1-.72-1.65c.25-.66.98-.98 1.64-.72 1.93.77 3.88 1.48 5.75 2.37l2.84 1.29c.95.42 1.9.85 2.8 1.34.65.32.9 1.09.58 1.71ZM228.33 28.45c-.4.58-1.19.72-1.76.32l-5.14-3.32c-1.7-1.1-3.51-2.05-5.27-3.08a1.3 1.3 0 0 1-.48-1.75 1.25 1.25 0 0 1 1.73-.48c1.78 1.06 3.62 2.03 5.37 3.15 1.74 1.12 3.5 2.22 5.23 3.37.57.4.72 1.2.32 1.79Z"
    fill="#fff" />
  <path
    d="M240.09 37.53c-.46.53-1.25.6-1.78.15a39.74 39.74 0 0 0-2.37-1.94l-2.4-1.9c-1.58-1.28-3.27-2.43-4.92-3.62a1.3 1.3 0 0 1-.3-1.78c.4-.58 1.19-.72 1.77-.31 1.68 1.21 3.4 2.37 5 3.69l2.45 1.92c.83.63 1.64 1.28 2.4 1.97.55.47.6 1.28.15 1.82ZM254.27 51.45c-.53.47-1.32.42-1.78-.1-1.37-1.51-2.8-2.95-4.2-4.44-1.39-1.49-2.92-2.83-4.38-4.25-.5-.49-.53-1.3-.06-1.82a1.25 1.25 0 0 1 1.8-.06c1.48 1.45 3.04 2.83 4.46 4.34 1.42 1.51 2.88 2.98 4.27 4.52a1.3 1.3 0 0 1-.1 1.81ZM263.54 63.07c-.57.41-1.36.28-1.76-.28l-.88-1.24-.95-1.2-1.89-2.4c-1.23-1.64-2.58-3.16-3.92-4.7-.45-.52-.39-1.33.13-1.79a1.27 1.27 0 0 1 1.8.12c1.36 1.56 2.73 3.12 3.98 4.78l1.93 2.44.96 1.23.9 1.27c.41.56.27 1.36-.3 1.77ZM273.99 79.97c-.62.33-1.4.1-1.7-.52-1.98-3.56-4.01-7.1-6.27-10.5a1.3 1.3 0 0 1 .39-1.76c.58-.4 1.37-.23 1.75.37 2.3 3.46 4.37 7.05 6.37 10.69.33.62.08 1.4-.54 1.72ZM280.21 93.48c-.65.26-1.4-.05-1.64-.7l-.56-1.42-.63-1.39-1.27-2.78c-.8-1.88-1.75-3.68-2.68-5.5a1.28 1.28 0 0 1 .56-1.7c.62-.34 1.4-.1 1.71.53.95 1.85 1.92 3.7 2.74 5.6l1.28 2.83.64 1.42.57 1.44a1.3 1.3 0 0 1-.72 1.67ZM286.3 112.4a1.25 1.25 0 0 1-1.53-.92c-.53-1.96-1.1-3.92-1.65-5.88-.55-1.96-1.28-3.87-1.9-5.81a1.3 1.3 0 0 1 .8-1.62c.66-.24 1.38.1 1.6.78.65 1.97 1.39 3.9 1.94 5.9.56 2 1.15 4 1.68 6a1.3 1.3 0 0 1-.95 1.55Z"
    fill="#fff" />
  <path
    d="M289.08 127c-.7.1-1.34-.38-1.43-1.07a148.1 148.1 0 0 0-2.31-12c-.16-.68.27-1.37.96-1.54.7-.17 1.37.25 1.53.94 1 4.03 1.7 8.13 2.37 12.22.07.7-.42 1.36-1.12 1.45ZM290.47 146.82c-.7 0-1.3-.56-1.31-1.26l-.16-6.1-.46-6.11c-.05-.7.48-1.31 1.17-1.38.7-.07 1.32.44 1.37 1.14l.47 6.2.16 6.22c.02.72-.53 1.3-1.24 1.3Z"
    fill="#fff" />
  <g id="opacity_block">
    <path
      d="m245.83 132.69-10.58-.9a5.94 5.94 0 0 1-4.96-4.37 85.9 85.9 0 0 0-10.49-25.33 5.92 5.92 0 0 1 .4-6.59l6.86-8.12a4.57 4.57 0 0 0-.27-6.05l-14.48-14.5a4.58 4.58 0 0 0-6.05-.26l-8.12 6.85a5.93 5.93 0 0 1-6.59.4 85.99 85.99 0 0 0-25.33-10.49 5.94 5.94 0 0 1-4.36-4.94l-.93-10.58a4.54 4.54 0 0 0-4.43-4.1h-20.51a4.54 4.54 0 0 0-4.46 4.1l-.89 10.58a5.96 5.96 0 0 1-4.39 4.94 86.48 86.48 0 0 0-25.33 10.5 5.93 5.93 0 0 1-6.58-.4l-8.1-6.86a4.6 4.6 0 0 0-6.07.26l-14.49 14.5a4.55 4.55 0 0 0-.26 6.05l6.85 8.12a5.96 5.96 0 0 1 .42 6.6 85.92 85.92 0 0 0-10.51 25.32 5.94 5.94 0 0 1-4.94 4.37l-10.58.9a4.54 4.54 0 0 0-4.1 4.46v20.5a4.56 4.56 0 0 0 4.1 4.46l10.58.9a5.95 5.95 0 0 1 4.94 4.36 85.78 85.78 0 0 0 10.5 25.34 5.93 5.93 0 0 1-.41 6.58l-6.85 8.12a4.55 4.55 0 0 0 .26 6.05l14.49 14.5a4.56 4.56 0 0 0 6.06.23l8.1-6.84a5.98 5.98 0 0 1 6.59-.42 86.5 86.5 0 0 0 25.33 10.5 6 6 0 0 1 4.4 4.97l.88 10.56a4.54 4.54 0 0 0 4.46 4.1h20.5a4.53 4.53 0 0 0 4.44-4.1l.93-10.56a5.95 5.95 0 0 1 4.36-4.96 85.58 85.58 0 0 0 25.33-10.51 5.96 5.96 0 0 1 6.6.42l8.1 6.84a4.53 4.53 0 0 0 6.06-.26l14.48-14.48c1.6-1.6 1.73-4.31.27-6.05l-6.86-8.12a5.9 5.9 0 0 1-.4-6.58 86.29 86.29 0 0 0 10.5-25.34 5.97 5.97 0 0 1 4.95-4.37l10.58-.89c2.25-.2 4.1-2.2 4.1-4.47v-20.5a4.55 4.55 0 0 0-4.1-4.44Zm-99.58 80.8a66.16 66.16 0 0 1-66.1-66.1 66.16 66.16 0 0 1 66.1-66.08 66.16 66.16 0 0 1 66.08 66.09 66.16 66.16 0 0 1-66.08 66.09Z"
      fill="#01009A" />
  </g>
  <path opacity=".4"
    d="M146.25 70.23a77.16 77.16 0 1 0 0 154.3 77.16 77.16 0 0 0 0-154.3Zm0 143.26a66.16 66.16 0 0 1-66.1-66.1 66.16 66.16 0 0 1 66.1-66.08 66.16 66.16 0 0 1 66.08 66.09 66.16 66.16 0 0 1-66.08 66.09Z"
    fill="#FF5A5A" />

  <path d="M146.24 154.93a7.54 7.54 0 1 0 0-15.09 7.54 7.54 0 0 0 0 15.09Z" fill="#FF5A5A" />
  <path d="M146.6 150.6a3.5 3.5 0 1 0 .01-7.01 3.5 3.5 0 0 0 0 7.01Z" fill="#00C7A0" />
</svg>