<svg width="125" height="125" viewBox="0 0 125 125" fill="none" xmlns="http://www.w3.org/2000/svg">
  <style>
    #sign {
      transform-origin: center;
      animation: inimate__one 2s infinite;
    }

    @keyframes inimate__one {
      0% {
        transform: rotate(-5deg);
      }

      50% {
        transform: rotate(5deg);
      }

      100% {
        transform: rotate(-5deg);
      }
    }
  </style>
  <g  id="sign">
    <path fill-rule="evenodd" clip-rule="evenodd"
      d="M46.6 29.77a24.77 24.77 0 1 0 49.54 0 24.77 24.77 0 0 0-49.53 0Zm24.78 20.48a20.48 20.48 0 1 1 0-40.96 20.48 20.48 0 0 1 0 40.96Z"
      fill="#000" />
    <path
      d="M73.19 15.13v1.75c1.27.21 2.3.63 3.12 1.27a7 7 0 0 1 1.1 1.1c.72.9.5 2.22-.5 2.78-.75.42-1.7.26-2.26-.39a3.73 3.73 0 0 0-2.9-1.4c-.97 0-1.77.3-2.4.88-.57.53-.9 1.29-.9 2.07 0 .77.25 1.4.76 1.9.5.5 1.5 1.09 3 1.77 1.31.6 2.39 1.15 3.24 1.67.85.52 1.5 1.03 1.92 1.51a6.76 6.76 0 0 1 1.83 4.77c0 1.83-.55 3.45-1.65 4.85a7.97 7.97 0 0 1-4.36 2.81v1.94a1.41 1.41 0 1 1-2.83 0v-1.84c-2.11-.34-3.73-1.07-4.84-2.18a8.48 8.48 0 0 1-1.85-3.1 1.86 1.86 0 0 1 1.36-2.45c.87-.18 1.75.27 2.09 1.08.38.92.8 1.61 1.28 2.1.73.66 1.7 1 2.93 1 1.18 0 2.17-.39 2.97-1.15a3.87 3.87 0 0 0 1.18-2.93c0-1.07-.33-1.92-.98-2.57a9.09 9.09 0 0 0-1.48-1.06c-.66-.4-1.49-.82-2.5-1.28-2.1-.94-3.47-1.8-4.12-2.59a6.13 6.13 0 0 1-1.57-4.22 6.15 6.15 0 0 1 1.45-3.98A6.7 6.7 0 0 1 68 17.82a9.4 9.4 0 0 1 2.35-.94v-1.75a1.41 1.41 0 1 1 2.83 0Z"
      fill="#000" />
  </g>
  <path fill-rule="evenodd" clip-rule="evenodd"
    d="M40.6 101.85c.79.76 2.02.8 2.86.1l4.22-3.52h29.71c4.46 0 8.74-1.77 11.9-4.92l28.68-27.73.03-.03a8.32 8.32 0 0 0-11.66-11.86L89.62 66.95a8.82 8.82 0 0 0-5.34-1.8h-27.3c-13.12-5.4-22.86-2.27-29.3 2.4a33.22 33.22 0 0 0-9.4 10.74l-.02.02v.01l1.92.96-1.92-.96c-.42.84-.24 1.85.43 2.5l21.9 21.03ZM22.88 78.9a28.94 28.94 0 0 1 7.32-7.87c5.4-3.92 13.7-6.75 25.5-1.74.27.11.55.17.84.17h27.74a4.57 4.57 0 1 1 0 9.14H62.53a2.14 2.14 0 1 0 0 4.3h21.75a8.86 8.86 0 0 0 8.04-12.6l16.76-13.09.2-.17a4.03 4.03 0 0 1 5.7 5.68L86.3 90.44l-.03.03a12.55 12.55 0 0 1-8.88 3.68H46.9c-.5 0-.99.17-1.37.5l-3.35 2.78-19.3-18.54Z"
    fill="#000" />
  <path fill-rule="evenodd" clip-rule="evenodd"
    d="M51.4 80.75a2.34 2.34 0 1 0 4.67 0 2.34 2.34 0 0 0-4.67 0ZM32.73 119.05c.56-.01 1.1-.25 1.5-.66l6.86-7.22a10.7 10.7 0 0 0-.37-15.12L25.58 81.64a10.7 10.7 0 0 0-15.12.37l-6.87 7.22c-.82.85-.78 2.21.08 3.03l27.52 26.2c.42.4.97.6 1.54.6ZM8.18 90.63l5.38-5.66a6.4 6.4 0 0 1 9.06-.22l15.14 14.4a6.4 6.4 0 0 1 .22 9.06l-5.38 5.67L8.18 90.63Z"
    fill="#000" />
</svg>