<svg width="125" height="125" viewBox="0 0 125 125" fill="none" xmlns="http://www.w3.org/2000/svg">
  <style>
    #lines_1 {
      animation: fade 3.6s infinite 0s;
    }
    #lines_2 {
      animation: fade 3.6s infinite 0.9s;
    }

    #lines_3 {
      animation: fade 3.6s infinite 1.8s;
    }

    #lines_4 {
      animation: fade 3.6s infinite 2.7s;
    }


    @keyframes fade {
      0% {
        opacity: 0;
      }
      50%{
        opacity: 1;
      }
      100% {
        opacity: 0;
      }
    }
  </style>
  <path fill-rule="evenodd" clip-rule="evenodd"
    d="M109.4 71V12.7c0-2-1.6-3.7-3.7-3.7h-68c-2 0-3.6 1.7-3.6 3.7V50h4V13h67.3v58h4Z" fill="#000" />
  <path fill-rule="evenodd" clip-rule="evenodd"
    d="M38 111.3V96.6h-4v15c0 2 1.7 3.7 3.8 3.7h67.9c2 0 3.7-1.7 3.7-3.7V88.9h-3.9v22.4H38Z" fill="#000" />
  <path fill-rule="evenodd" clip-rule="evenodd" d="M104.6 80a2.8 2.8 0 1 0 5.6 0 2.8 2.8 0 0 0-5.6 0Z" fill="#000" />
  <path fill-rule="evenodd" clip-rule="evenodd"
    d="M109.4 71.5a2 2 0 1 1-1.6-2.3 2 2 0 0 1 1.6 2.3Zm-2.9-.5c.1-.5.6-.8 1-.7v.7l-.2 1a.9.9 0 0 1-.8-1h.2-.2Zm1 .1-.2 1c.4 0 1-.3 1-.8h-.3.3a.9.9 0 0 0-.7-1l-.2.7v.1Z"
    fill="#000" />
  <path fill-rule="evenodd" clip-rule="evenodd"
    d="M109.4 89.2a2 2 0 1 1-1.6-2.3 2 2 0 0 1 1.6 2.3Zm-2.9-.5c.1-.5.6-.8 1-.8v1l-.2.8a.9.9 0 0 1-.8-1h.4-.4Zm1 .1v.1l-.2.8c.4 0 1-.2 1-.7h-.3.3v-.1c0-.5-.3-.9-.7-1l-.2.9Z"
    fill="#000" />
    <path id="lines_1" fill-rule="evenodd" clip-rule="evenodd" d="M62.4 53.2c0 1.2 1 2 2 2h33.8a2 2 0 0 0 0-4H64.4a2 2 0 0 0-2 2Z"
      fill="#000" />
    <path id="lines_2" fill-rule="evenodd" clip-rule="evenodd" d="M62.4 62.6c0 1.2 1 2 2 2h33.8a2 2 0 0 0 0-4H64.4a2 2 0 0 0-2 2Z"
      fill="#000" />
    <path id="lines_3" fill-rule="evenodd" clip-rule="evenodd" d="M62.4 72c0 1.2 1 2 2 2h33.8a2 2 0 0 0 0-4H64.4a2 2 0 0 0-2 2Z"
      fill="#000" />
    <path id="lines_4" fill-rule="evenodd" clip-rule="evenodd" d="M62.4 81.4c0 1.2 1 2 2 2h33.8a2 2 0 0 0 0-4H64.4a2 2 0 0 0-2 2Z"
      fill="#000" />
  <path d="M98.7 39.9H72.5c-.8 0-1.5-1-1.5-2 0-1.2.7-2 1.5-2h26.2c.9 0 1.6.8 1.6 2 0 1-.7 2-1.6 2Z" fill="#000" />
  <path fill-rule="evenodd" clip-rule="evenodd"
    d="M70.9 25.7c0 3.6 3 6.6 6.6 6.6H94c3.6 0 6.6-3 6.6-6.6v-1c0-3.7-3-6.6-6.6-6.6H77.5c-3.7 0-6.6 3-6.6 6.6v1Zm6.6 2.8a2.8 2.8 0 0 1-2.8-2.8v-1c0-1.6 1.2-2.8 2.8-2.8H94c1.5 0 2.8 1.2 2.8 2.8v1c0 1.5-1.3 2.8-2.8 2.8H77.5Z"
    fill="#000" />
  <path fill-rule="evenodd" clip-rule="evenodd"
    d="M59.1 24a1.6 1.6 0 1 0 3.3 0 1.6 1.6 0 0 0-3.3 0Zm1.7-.5a.6.6 0 1 1 0 1.2.6.6 0 0 1 0-1.2Z" fill="#000" />
  <path fill-rule="evenodd" clip-rule="evenodd"
    d="M46.4 23.9a1.6 1.6 0 1 0 3.3 0 1.6 1.6 0 0 0-3.3 0Zm1.7-.6a.6.6 0 1 1 0 1.2.6.6 0 0 1 0-1.2Z" fill="#000" />
  <path fill-rule="evenodd" clip-rule="evenodd"
    d="M36 91.3c-1.3 0-2.3-.7-3-1.3l-1.6-2.2-.3-.5-1-1.4c-.4-.6-.6-.7-.7-.7h-1l-1.8.3a112.3 112.3 0 0 1-3.2.5 4 4 0 0 1-3-1.1 4 4 0 0 1-1-3c0-1 .2-1.9.3-2.7l.1-.5.4-1.7v-1.1l-.8-.7-1.4-1a109.9 109.9 0 0 1-2.7-2 4.2 4.2 0 0 1-1.3-2.9c0-1.3.7-2.2 1.3-2.9a13.1 13.1 0 0 1 2.7-2c.6-.3 1-.6 1.4-1l.7-.6v-1.1l-.3-1.8v-.5c-.2-.8-.4-1.7-.4-2.6 0-1 .1-2.1 1-3 1-1 2.1-1.1 3-1.1a13.7 13.7 0 0 1 3.2.5c.7 0 1.2.2 1.8.3h1l.7-.8 1-1.3a102.9 102.9 0 0 1 2-2.7c.6-.7 1.6-1.4 2.9-1.4 1.3 0 2.3.7 3 1.4.6.6 1.1 1.4 1.6 2.1l.3.6c.4.5.6 1 1 1.3l.7.8h1l1.8-.3.5-.2 2.7-.3c.9 0 2 .2 3 1 .9 1 1 2.2 1 3 0 1-.2 2-.3 2.7l-.1.5a21 21 0 0 0-.4 1.8v1l.8.8a21.2 21.2 0 0 0 1.9 1.2c.7.5 1.5 1 2.2 1.7.6.7 1.3 1.6 1.3 3 0 1.2-.7 2.2-1.3 2.8a13.1 13.1 0 0 1-2.7 2l-1.4 1c-.6.4-.7.6-.7.7v1l.3 1.8v.5c.2.8.4 1.8.4 2.7 0 .9-.1 2-1 3a4 4 0 0 1-3 1c-1 0-1.9-.1-2.7-.3l-.5-.1a21 21 0 0 0-1.8-.3h-1s-.3.1-.7.7l-1 1.4a96.3 96.3 0 0 1-2 2.7c-.6.6-1.6 1.3-2.9 1.3Zm-3-7.6a5.7 5.7 0 0 0-2.2-1.9c-1-.4-2-.3-2.9-.2-.7 0-1.5.2-2.1.4h-.4a10.4 10.4 0 0 1-2.4.3v-.4a10.4 10.4 0 0 1 .4-2.3l.4-2.2c0-.8.1-2-.3-3-.4-.9-1.2-1.6-1.9-2.1L20 71l-.4-.3-1.6-1.1-.3-.4.3-.3c.4-.4.9-.8 1.6-1.2l.4-.3 1.7-1.1c.7-.5 1.5-1.3 2-2.3.3-1 .3-2 .2-2.9a25.4 25.4 0 0 0-.5-2.5 10.4 10.4 0 0 1-.3-2.3h.4c.5 0 1.1 0 2 .2h.4l2.1.5c.8 0 2 .1 3-.3s1.6-1.2 2.1-1.9l1.2-1.7.3-.4 1.1-1.6.4-.2.4.2a9.8 9.8 0 0 1 1.4 2L39 55c.5.7 1.2 1.5 2.2 2 1 .3 2 .3 2.9.2l2.1-.4.4-.1a10.4 10.4 0 0 1 2.4-.2v.3a10.4 10.4 0 0 1-.4 2.4l-.4 2.1c0 .9-.1 2 .3 3s1.2 1.7 1.9 2.2a26.2 26.2 0 0 0 2.1 1.4l1.6 1.2.3.3-.3.4-1.6 1.1-.4.3-1.7 1.2c-.7.5-1.5 1.2-2 2.2-.3 1-.3 2-.2 3l.4 2a100.9 100.9 0 0 1 .4 2.8h-.4a10.4 10.4 0 0 1-2.4-.3c-.6-.2-1.4-.4-2.1-.4-.8-.1-2-.2-3 .2S39.6 83 39 83.7l-1.2 1.7a78.3 78.3 0 0 1-1.8 2.3l-.4-.3-1.1-1.6-.3-.4-1.2-1.7Z"
    fill="#000" />
  <path fill-rule="evenodd" clip-rule="evenodd"
    d="M26.4 69.3a9.6 9.6 0 1 0 19.2 0 9.6 9.6 0 0 0-19.2 0Zm9.6 6.2a6.2 6.2 0 1 1 0-12.4 6.2 6.2 0 0 1 0 12.4Z"
    fill="#000" />
  <path fill-rule="evenodd" clip-rule="evenodd"
    d="M47.1 35.5a3 3 0 0 0 3 2.8h9.2a3 3 0 0 0 3-2.8l.3-4.6c.1-1.3-1-2.5-2.3-2.5H49a2.3 2.3 0 0 0-2.3 2.5l.4 4.6Zm2.7-.2-.3-4.2h10.4l-.3 4.2-.3.3H50a.3.3 0 0 1-.3-.3Z"
    fill="#000" />
  <path fill-rule="evenodd" clip-rule="evenodd"
    d="M26.7 107a2 2 0 0 0 2.2-.4l8.6-8.5a2 2 0 0 0-2.9-2.9l-5.1 5.1V86a2 2 0 1 0-4 0v19.2a2 2 0 0 0 1.2 1.9Z"
    fill="#000" />
  <path fill-rule="evenodd" clip-rule="evenodd"
    d="M45.4 107a2 2 0 0 0 1.3-1.8V86a2 2 0 0 0-4 0v14.3l-5.2-5.1a2 2 0 1 0-2.9 2.9l8.6 8.5a2 2 0 0 0 2.2.5Z"
    fill="#000" />
  <path d="M106.5 71c0 .5.3 1 .8 1l.1-1h-.7.2-.4Z" fill="#000" />
  <path d="M107.3 72c.4.1 1-.2 1-.7h-.3.3V71h-.9v.1l-.1 1Z" fill="#000" />
  <path d="M107.4 88.9h1c0-.5-.4-.9-.8-1l-.2.9v.1Z" fill="#000" />
  <path d="M107.6 88c-.5-.1-1 .2-1 .7h.3-.4v.2h1v-1Z" fill="#000" />
  <path d="M48.7 23.9a.6.6 0 1 0-1.2 0 .6.6 0 0 0 1.2 0Z" fill="#000" />
  <path d="M55.3 21.6a.6.6 0 1 0-1.3 0 .6.6 0 0 0 1.3 0Z" fill="#000" />
  <path fill-rule="evenodd" clip-rule="evenodd"
    d="M54.7 23.3a1.6 1.6 0 1 1 0-3.3 1.6 1.6 0 0 1 0 3.3Zm0-2.3a.6.6 0 1 1 0 1.3.6.6 0 0 1 0-1.3Z" fill="#000" />
  <path d="M61.4 24a.6.6 0 1 0-1.3 0 .6.6 0 0 0 1.3 0Z" fill="#000" />
</svg>