<svg width="125" height="125" viewBox="0 0 125 125" fill="none" xmlns="http://www.w3.org/2000/svg">
  <style>
    #sign_box {
      transform-origin: center;
      animation: 3s tremor ease-out infinite;
    }
    @keyframes tremor {
      0%, 2% {
          transform: translateX(-3%);
      }
      2%, 4%{
        transform: translateX(3%);
      }
      5%, 94%{
        transform: translateX(0);
      }
      95%, 97% {
          transform: translateX(-3%);
      }
      98%, 100% {
        transform: translateX(3%);
    }
  }
  </style>
  <g id="sign_box">
    <path fill-rule="evenodd" clip-rule="evenodd"
      d="M62.1 78.4 94 60.2V23.6L62.1 5 30.4 23.6v36.6L62 78.4Zm-28.5-20v-33L62 8.8l28.6 16.8v32.9L62.1 74.7 33.6 58.4Z"
      fill="#000" />
    <path fill-rule="evenodd" clip-rule="evenodd" d="M60.5 42.6v34h3.2V40.8l-31-17.6-1.5 2.8 29.3 16.6Z" fill="#000" />
    <path fill-rule="evenodd" clip-rule="evenodd" d="M91.5 23.2 61.4 40.3l1.5 2.8L93.1 26l-1.6-2.8Z" fill="#000" />
    <path fill-rule="evenodd" clip-rule="evenodd" d="M80 30.7 50 13l-1.6 2.8 29.9 17.6 1.6-2.7Z" fill="#000" />
    <path fill-rule="evenodd" clip-rule="evenodd"
      d="M68 67c.5.3 1 .3 1.3 0l17.1-9.6c.4-.2.6-.6.6-1v-8.1a1.2 1.2 0 0 0-1.8-1L67.9 57c-.3.2-.6.6-.6 1l.2 8c0 .4.2.8.6 1Zm1.8-3v-5.2l14.8-8.4v5.3L69.8 64Z"
      fill="#000" />
  </g>

  <path fill-rule="evenodd" clip-rule="evenodd"
    d="M6 96c0 5.3 4.2 9.4 9.4 9.4h93.5c5.2 0 9.4-4.1 9.4-9.3V32.8c0-5.2-4.2-9.4-9.4-9.4H91.5v3.2H109c3.4 0 6.2 2.8 6.2 6.2V96c0 3.4-2.8 6.1-6.2 6.1H15.4a6.2 6.2 0 0 1-6.2-6.1V32.8c0-3.4 2.8-6.2 6.2-6.2h17.4v-3.2H15.4A9.4 9.4 0 0 0 6 32.8V96Z"
    fill="#000" />
  <path fill-rule="evenodd" clip-rule="evenodd" d="M116.7 88.9H7.6v3.2h109v-3.2Z" fill="#000" />
  
  <path fill-rule="evenodd" clip-rule="evenodd"
    d="M27.5 116.8c0 .9.7 1.6 1.6 1.6h66.1a1.6 1.6 0 0 0 0-3.2H29.1c-1 0-1.6.7-1.6 1.6Z" fill="#000" />
  <path fill-rule="evenodd" clip-rule="evenodd"
    d="M52.5 103.9h-3.2a26 26 0 0 1-.1 1.8l-.6 4.3c-.3 1.5-.8 3-1.4 4-.5 1-1 1.2-1.5 1.2v3.2c2 0 3.4-1.4 4.3-2.8.8-1.5 1.4-3.3 1.7-5a37.8 37.8 0 0 0 .8-6.7Z"
    fill="#000" />
  <path fill-rule="evenodd" clip-rule="evenodd"
    d="M75.7 103.8h-3.2v.1a13.8 13.8 0 0 0 0 .6 41.8 41.8 0 0 0 .8 6.1c.3 1.7.8 3.5 1.7 5 .9 1.4 2.2 2.8 4.3 2.8v-3.2c-.4 0-1-.3-1.5-1.3-.6-1-1-2.4-1.4-4a34.6 34.6 0 0 1-.7-6Z"
    fill="#000" />
  <path fill-rule="evenodd" clip-rule="evenodd"
    d="M13 83.9c0 1 .8 1.7 1.8 1.7h94.7c1 0 1.7-.8 1.7-1.7V32.4c0-.9-.7-1.7-1.7-1.7H92.3a1.7 1.7 0 1 0 0 3.4h15.6v48.1H16.4V63a1.7 1.7 0 1 0-3.3 0v21Z"
    fill="#000" />
  <path fill-rule="evenodd" clip-rule="evenodd"
    d="M14.8 57c.8 0 1.6-.7 1.6-1.6V34H32a1.6 1.6 0 0 0 0-3.2H14.8c-1 0-1.6.7-1.6 1.6v23c0 .9.7 1.6 1.6 1.6Z"
    fill="#000" />
</svg>